<svg id="Capa_1" data-name="Capa 1" xmlns="http://www.w3.org/2000/svg" viewBox="0 0 457.03 457.03"><defs><style>.cls-1{fill:#3fb777;}</style></defs><title>tab-icon</title><path class="cls-1" d="M421.51,207.07l-85.79,85.77a119.88,119.88,0,0,1-190-24.46l39.86-39.86c1.9-1.92,4.24-3,6.47-4.3a59.79,59.79,0,0,0,15,25.74,60.72,60.72,0,0,0,85.77,0l85.76-85.77a60.65,60.65,0,1,0-85.76-85.78l-30.5,30.53A152.1,152.1,0,0,0,185,100.52l65-65A121.3,121.3,0,0,1,421.51,207.07Zm-226.8,141-30.52,30.54a60.66,60.66,0,1,1-85.78-85.8l85.78-85.77a60.68,60.68,0,0,1,85.76,0,60,60,0,0,1,15,25.71c2.25-1.31,4.56-2.37,6.45-4.27l39.87-39.84a119.34,119.34,0,0,0-18.43-24.48,121.3,121.3,0,0,0-171.54,0L35.53,250A121.3,121.3,0,0,0,207.07,421.51l65-65A152,152,0,0,1,194.71,348.1Z" transform="translate(0 0)"/></svg>