<svg id="Layer_1" data-name="Layer 1" xmlns="http://www.w3.org/2000/svg" viewBox="0 0 512 512"><defs><style>.cls-1{fill:#fff;}</style></defs><title>twitter</title><path class="cls-1" d="M256,0C114.64,0,0,114.64,0,256S114.64,512,256,512,512,397.36,512,256,397.36,0,256,0ZM372.89,199.6q.17,3.78.16,7.6c0,77.64-59.1,167.18-167.18,167.18h0A166.35,166.35,0,0,1,115.8,348a118.69,118.69,0,0,0,87-24.34,58.8,58.8,0,0,1-54.89-40.81,58.63,58.63,0,0,0,26.54-1,58.77,58.77,0,0,1-47.15-57.59c0-.27,0-.51,0-.75a58.33,58.33,0,0,0,26.62,7.34,58.82,58.82,0,0,1-18.2-78.44,166.84,166.84,0,0,0,121.12,61.39A58.79,58.79,0,0,1,357,160.19a117.75,117.75,0,0,0,37.31-14.26,59,59,0,0,1-25.84,32.5,117.49,117.49,0,0,0,33.75-9.26A119.45,119.45,0,0,1,372.89,199.6Z"/></svg>